#!OML:ASF F:\VICON\USERDATA\INSTALL\rory3\rory3.ASF
:FULLY-SPECIFIED
:DEGREES
1365
root 0.427249 15.9368 0.125781 -1.0915 0.0134526 -1.20745
lowerback 11.0622 0.933803 -0.526307
upperback -2.81835 1.28644 1.26947
thorax -9.28158 0.692757 1.41018
lowerneck -8.11338 -12.5347 -16.0893
upperneck 34.9548 -16.0167 2.20864
head 15.161 -8.75865 0.963098
rclavicle -2.98798e-015 -5.96354e-016
rhumerus 16.6857 -40.269 -65.715
rradius 66.6861
rwrist -10.6117
rhand -14.6228 6.78273
rfingers 7.12502
rthumb 11.5286 -22.8802
lclavicle -2.98798e-015 -5.96354e-016
lhumerus -38.5164 -17.9282 97.6748
lradius 24.3174
lwrist 2.60746
lhand -6.82084 15.4238
lfingers 7.12502
lthumb 19.0431 44.5116
rfemur -2.59361 10.8598 18.1305
rtibia 22.7955
rfoot -14.5378 -13.0674
rtoes -11.635
lfemur -2.02658 -11.5973 -17.2624
ltibia 21.1527
lfoot -13.5668 7.644
ltoes -12.0657
1366
root 0.423813 15.9376 0.118122 -1.08154 -0.00375247 -1.25127
lowerback 11.1492 0.943813 -0.494528
upperback -2.8246 1.30268 1.24712
thorax -9.33838 0.698205 1.36423
lowerneck -8.19825 -12.411 -15.8372
upperneck 34.8008 -15.8701 2.24444
head 15.0594 -8.65877 0.972908
rclavicle -1.55301e-015 3.57812e-015
rhumerus 17.8053 -38.743 -65.7858
rradius 66.761
rwrist -7.48603
rhand -14.5222 7.23556
rfingers 7.12502
rthumb 11.6256 -22.4219
lclavicle -1.55301e-015 3.57812e-015
lhumerus -38.4563 -17.8898 97.6073
lradius 24.3058
lwrist 2.65828
lhand -6.87729 15.401
lfingers 7.12502
lthumb 18.9888 44.4941
rfemur -2.62009 10.9797 18.208
rtibia 22.732
rfoot -14.4 -13.1776
rtoes -11.7945
lfemur -2.062 -11.6413 -17.1881
ltibia 21.1237
lfoot -13.5539 7.70852
ltoes -11.8577
1367
root 0.422389 15.939 0.116579 -1.07601 -0.0969679 -1.47673
lowerback 11.1185 0.955884 -0.238812
upperback -2.79323 1.35739 1.26388
thorax -9.28184 0.710406 1.2278
lowerneck -8.38861 -12.2567 -15.3947
upperneck 34.6685 -15.6661 2.17621
head 14.951 -8.52159 0.917956
rclavicle 6.41081e-015 5.1684e-015
rhumerus 18.9135 -37.1181 -65.7789
rradius 66.8062
rwrist -4.46657
rhand -14.2738 7.36408
rfingers 7.12502
rthumb 11.8651 -22.2797
lclavicle 6.41081e-015 5.1684e-015
lhumerus -38.3838 -17.8553 97.4935
lradius 24.3593
lwrist 2.69735
lhand -6.79571 15.5323
lfingers 7.12502
lthumb 19.0673 44.6177
rfemur -2.61518 11.1231 18.4781
rtibia 22.6818
rfoot -14.3157 -13.2555
rtoes -11.6847
lfemur -2.02424 -11.6651 -16.9449
ltibia 21.0763
lfoot -13.5828 7.83942
ltoes -12.1118
1368
root 0.424208 15.941 0.119904 -1.11315 -0.14092 -1.47534
lowerback 11.0631 0.965048 -0.172653
upperback -2.73662 1.3734 1.20922
thorax -9.18476 0.712279 1.12989
lowerneck -8.55411 -12.0943 -15.062
upperneck 34.5312 -15.4672 2.20711
head 14.8611 -8.38825 0.917747
rclavicle -1.67911e-014 -1.21259e-014
rhumerus 19.6144 -35.2079 -65.2775
rradius 66.992
rwrist -1.6882
rhand -13.8976 7.31382
rfingers 7.12502
rthumb 12.2279 -22.3087
lclavicle -1.67911e-014 -1.21259e-014
lhumerus -38.2917 -17.8732 97.3866
lradius 24.3901
lwrist 2.90787
lhand -6.70402 15.6613
lfingers 7.12502
lthumb 19.1555 44.7379
rfemur -2.50855 11.1425 18.4742
rtibia 22.5802
rfoot -14.2785 -13.2126
rtoes -11.5492
lfemur -1.94137 -11.7981 -17.0014
ltibia 21.1047
lfoot -13.6988 8.01881
ltoes -12.2546
1369
root 0.423198 15.9423 0.116916 -1.1486 -0.18894 -1.4012
lowerback 11.1161 0.979576 -0.220134
upperback -2.70723 1.37922 1.13518
thorax -9.18283 0.715147 1.07589
lowerneck -8.6748 -11.9383 -14.8533
upperneck 34.34 -15.2963 2.35218
head 14.7669 -8.26868 0.978593
rclavicle -1.31074e-015 4.47266e-015
rhumerus 20.3233 -33.307 -64.8046
rradius 67.1225
rwrist 1.18624
rhand -13.6477 7.86611
rfingers 7.12502
rthumb 12.4688 -21.7419
lclavicle -1.31074e-015 4.47266e-015
lhumerus -38.2437 -17.8995 97.3033
lradius 24.3897
lwrist 2.92731
lhand -6.85008 15.7092
lfingers 7.12502
lthumb 19.015 44.7997
rfemur -2.43399 11.2079 18.4022
rtibia 22.4744
rfoot -14.2469 -13.1895
rtoes -11.5409
lfemur -1.90682 -12.0111 -17.1257
ltibia 21.1453
lfoot -13.8111 8.28654
ltoes -11.9729
1370
root 0.41766 15.9429 0.107236 -1.17234 -0.283895 -1.70789
lowerback 11.2667 0.982523 0.0528553
upperback -2.71512 1.42835 1.18145
thorax -9.27479 0.725077 0.959848
lowerneck -8.70725 -11.7791 -14.7351
upperneck 34.0911 -15.1454 2.59222
head 14.6494 -8.1591 1.09287
rclavicle -1.00635e-015 2.5842e-015
rhumerus 20.8692 -31.1356 -64.025
rradius 67.2335
rwrist 3.69624
rhand -13.8283 8.25875
rfingers 7.12502
rthumb 12.2947 -21.3598
lclavicle -1.00635e-015 2.5842e-015
lhumerus -38.2556 -17.8837 97.2319
lradius 24.3518
lwrist 2.6923
lhand -7.01429 15.611
lfingers 7.12502
lthumb 18.8571 44.7169
rfemur -2.45275 11.4231 18.7968
rtibia 22.4368
rfoot -14.1604 -13.3286
rtoes -11.6041
lfemur -1.92475 -12.0099 -16.7564
ltibia 21.1753
lfoot -13.8211 8.35185
ltoes -11.5725
1371
root 0.413612 15.9438 0.101795 -1.21072 -0.344819 -1.86067
lowerback 11.3737 0.984843 0.214401
upperback -2.71252 1.45546 1.17221
thorax -9.33042 0.728618 0.85211
lowerneck -8.75563 -11.6193 -14.6973
upperneck 33.907 -15.0158 2.93742
head 14.588 -8.05514 1.25256
rclavicle 3.89494e-015 1.33186e-014
rhumerus 21.1216 -28.6957 -62.8421
rradius 67.4576
rwrist 5.66413
rhand -14.148 8.49936
rfingers 7.12502
rthumb 11.9864 -21.1374
lclavicle 3.89494e-015 1.33186e-014
lhumerus -38.2268 -17.8553 97.1315
lradius 24.2841
lwrist 2.54044
lhand -6.98426 15.571
lfingers 7.12502
lthumb 18.886 44.6741
rfemur -2.44023 11.533 19.0017
rtibia 22.4187
rfoot -14.1173 -13.3678
rtoes -11.4911
lfemur -1.94927 -11.9511 -16.5626
ltibia 21.2684
lfoot -13.8226 8.30437
ltoes -11.4703
1372
root 0.411652 15.942 0.0997066 -1.21462 -0.395089 -1.82331
lowerback 11.4077 1.00179 0.20188
upperback -2.72755 1.47066 1.10425
thorax -9.36527 0.734362 0.782958
lowerneck -8.87032 -11.4719 -14.5622
upperneck 33.7736 -14.8708 3.14597
head 14.5382 -7.94819 1.34085
rclavicle 8.71857e-015 1.14301e-014
rhumerus 21.4572 -26.47 -61.8461
rradius 67.6665
rwrist 7.7385
rhand -13.9206 9.23441
rfingers 7.12502
rthumb 12.2056 -20.3895
lclavicle 8.71857e-015 1.14301e-014
lhumerus -38.2648 -17.9292 97.0905
lradius 24.3009
lwrist 2.58137
lhand -6.9022 15.6257
lfingers 7.12502
lthumb 18.9649 44.7211
rfemur -2.44277 11.5287 18.9611
rtibia 22.3993
rfoot -14.0626 -13.3315
rtoes -11.6861
lfemur -2.0235 -11.8241 -16.5838
ltibia 21.405
lfoot -13.8504 8.24267
ltoes -11.5753
1373
root 0.409545 15.9389 0.0950949 -1.22496 -0.454279 -1.86205
lowerback 11.4769 1.01287 0.248766
upperback -2.73473 1.48906 1.05825
thorax -9.41117 0.738917 0.702622
lowerneck -8.94746 -11.3438 -14.3815
upperneck 33.5596 -14.7458 3.30063
head 14.4352 -7.85167 1.40098
rclavicle -1.45672e-014 -1.22253e-014
rhumerus 22.0756 -24.4859 -61.1388
rradius 67.7703
rwrist 10.2891
rhand -13.2599 10.1289
rfingers 7.12502
rthumb 12.8426 -19.456
lclavicle -1.45672e-014 -1.22253e-014
lhumerus -38.2446 -17.9438 96.9923
lradius 24.248
lwrist 2.59106
lhand -6.87813 15.5437
lfingers 7.12502
lthumb 18.988 44.6369
rfemur -2.47626 11.5584 19.0104
rtibia 22.4529
rfoot -14.1013 -13.295
rtoes -11.7068
lfemur -2.07104 -11.6377 -16.5052
ltibia 21.4665
lfoot -13.8679 8.16942
ltoes -11.7412
1374
root 0.407733 15.9376 0.091454 -1.23177 -0.509405 -1.8629
lowerback 11.5338 1.02141 0.243791
upperback -2.73978 1.49591 1.00979
thorax -9.44867 0.740757 0.651297
lowerneck -9.02526 -11.1989 -14.2292
upperneck 33.3628 -14.598 3.47686
head 14.3436 -7.7462 1.47703
rclavicle -3.30309e-014 -2.26615e-014
rhumerus 22.8301 -22.4151 -60.4778
rradius 67.7248
rwrist 12.8154
rhand -13.0415 10.2339
rfingers 7.12502
rthumb 13.0532 -19.3377
lclavicle -3.30309e-014 -2.26615e-014
lhumerus -38.2583 -18.0196 96.9537
lradius 24.2204
lwrist 2.72072
lhand -6.93416 15.4358
lfingers 7.12502
lthumb 18.9341 44.5342
rfemur -2.54015 11.5926 19.0128
rtibia 22.5475
rfoot -14.1675 -13.257
rtoes -11.3064
lfemur -2.08555 -11.484 -16.4839
ltibia 21.4778
lfoot -13.8615 8.11746
ltoes -12.0649
